# xmcd CD database file
#
# Track frame offsets:
#	150
#	30026
#	48548
#	73032
#	95002
#	112433
#	132595
#	159934
#	181937
#	201174
#	228714
#	251688
#	269078
#	290792
#	320612
#
# Disc length: 4602 seconds
#
# Revision: 0
# Processed by: cddbd v1.5.2PL0 Copyright (c) Steve Scherf et al.
# Submitted via: CDex 1.70beta2
#
DISCID=ed11f80f
DTITLE=Art Pepper - Work of Art 3 - Tickle Toe
DYEAR=1957
DGENRE=Jazz
TTITLE0=All the Things You Are
TTITLE1=What's New?
TTITLE2=I Can't Believe that You're in Love with Me
TTITLE3=Tickle Toe
TTITLE4=Avalon
TTITLE5=Bewitched
TTITLE6=Blues In
TTITLE7=When You're Smiling
TTITLE8=Cool Bunny
TTITLE9=What Is This Thing Called Love?
TTITLE10=Stompin' At the Savoy
TTITLE11=Diane's Dilemma
TTITLE12=Blues Out
TTITLE13=The Man I Love
TTITLE14=You'd Be So Nice to Come Home to
EXTD=YEAR: 1957
EXTT0=
EXTT1=
EXTT2=
EXTT3=
EXTT4=
EXTT5=
EXTT6=
EXTT7=
EXTT8=
EXTT9=
EXTT10=
EXTT11=
EXTT12=
EXTT13=
EXTT14=
PLAYORDER=
